<?xml version="1.0" standalone="no"?>
<!DOCTYPE svg PUBLIC "-//W3C//DTD SVG 20010904//EN"
        "http://www.w3.org/TR/2001/REC-SVG-20010904/DTD/svg10.dtd">
<svg version="1.0" xmlns="http://www.w3.org/2000/svg"
     width="205.000000pt" height="82.000000pt" viewBox="0 0 205.000000 82.000000"
     preserveAspectRatio="xMidYMid meet">

    <g transform="translate(0.000000,82.000000) scale(0.100000,-0.100000)"
       fill="#000000" stroke="none">
        <path d="M169 802 c55 -27 76 -64 76 -132 0 -102 -57 -150 -177 -150 l-68 0 0
-190 c0 -154 3 -190 14 -190 7 0 20 -17 28 -38 l15 -37 13 43 c17 53 33 54 49
2 13 -45 26 -45 36 0 4 20 13 30 25 30 18 0 18 -4 -5 -70 l-24 -70 63 0 62 0
31 70 c17 39 38 70 45 70 8 0 27 -31 44 -70 l29 -70 58 0 57 0 0 70 0 70 45 0
c34 0 47 -5 55 -19 14 -27 13 -37 -5 -55 -14 -14 -14 -18 1 -41 14 -22 23 -25
75 -25 l59 0 0 70 0 70 50 0 c38 0 50 -4 50 -15 0 -10 -11 -15 -35 -15 -19 0
-35 -4 -35 -10 0 -5 14 -10 30 -10 20 0 30 -5 30 -15 0 -10 -10 -15 -30 -15
-20 0 -30 -5 -30 -15 0 -10 11 -15 35 -15 24 0 35 -5 35 -15 0 -12 13 -15 60
-15 l60 0 0 70 c0 56 3 70 15 70 9 0 15 -9 15 -25 0 -21 5 -25 30 -25 25 0 30
4 30 25 0 16 6 25 15 25 12 0 15 -14 15 -70 l0 -70 77 0 c73 0 75 1 60 18 -21
23 -22 71 -1 100 20 28 83 31 107 4 22 -24 22 -80 0 -104 -15 -17 -13 -18 70
-18 l87 0 -10 26 c-16 41 -13 114 5 114 11 0 15 -11 15 -42 0 -52 11 -71 36
-66 15 2 20 14 22 56 2 37 7 52 18 52 18 0 20 -110 2 -128 -9 -9 7 -12 72 -12
65 0 81 3 72 12 -21 21 -13 29 23 22 44 -8 46 8 3 27 -60 26 -42 84 24 77 22
-2 34 -9 36 -21 3 -16 -1 -17 -35 -12 -36 6 -37 5 -19 -9 11 -9 26 -16 33 -16
21 0 35 -37 23 -60 -10 -19 -8 -20 55 -20 l65 0 0 70 0 70 50 0 50 0 0 130 0
130 -30 0 -30 0 0 -100 0 -100 -40 0 -40 0 0 100 0 100 -30 0 c-27 0 -30 3
-30 30 l0 30 100 0 100 0 0 165 0 165 -45 0 -45 0 0 -135 c0 -113 -2 -135 -15
-135 -13 0 -15 22 -15 135 l0 135 -45 0 c-33 0 -45 4 -45 15 0 8 -7 15 -15 15
-13 0 -15 -24 -15 -156 0 -90 -4 -154 -9 -152 -5 2 -54 57 -108 123 l-98 119
-3 -117 c-2 -95 -5 -117 -17 -117 -13 0 -15 25 -15 150 l0 150 -30 0 -30 0 0
-110 c0 -153 -23 -190 -118 -190 -83 0 -112 52 -112 200 l0 100 -72 0 -73 0
33 -20 c35 -22 71 -87 72 -130 0 -43 -42 -112 -80 -132 -67 -35 -160 -15 -203
44 -11 14 -22 48 -24 75 -5 59 18 108 66 140 l34 23 -109 0 -109 0 32 -20 c31
-18 53 -48 53 -69 0 -20 -17 -12 -53 24 -31 31 -41 35 -86 35 -44 0 -55 -4
-86 -35 -28 -29 -35 -43 -35 -76 0 -80 49 -129 131 -129 34 0 47 6 76 35 46
46 73 48 46 4 -38 -65 -144 -90 -211 -49 -53 32 -74 75 -69 142 3 61 19 86 72
119 l30 19 -95 0 c-86 0 -93 -1 -73 -15 23 -16 37 -55 20 -55 -6 0 -21 10 -34
22 -42 40 -113 22 -113 -29 0 -20 11 -29 68 -54 37 -16 73 -37 80 -46 20 -27
14 -72 -13 -98 -42 -43 -140 -30 -164 21 -14 31 8 33 34 4 22 -25 86 -27 109
-4 34 34 12 72 -56 93 -20 7 -48 21 -62 32 -34 27 -36 79 -4 109 l22 20 -47 0
-47 0 0 -150 c0 -127 -2 -150 -15 -150 -13 0 -15 23 -15 150 l0 150 -82 0 -83
0 34 -18z m957 -363 c32 -30 30 -45 -7 -58 -26 -9 -34 -8 -44 5 -6 9 -20 14
-31 12 -16 -3 -19 -12 -19 -63 0 -51 3 -60 19 -63 11 -2 25 3 31 12 10 13 18
14 44 5 36 -13 39 -30 9 -58 -29 -27 -78 -36 -122 -21 -47 15 -56 34 -56 122
0 79 14 112 54 129 33 14 95 3 122 -22z m-319 -36 l38 -57 3 57 3 57 34 0 35
0 0 -130 0 -130 -32 0 c-29 0 -37 7 -73 62 l-40 63 -3 -63 -3 -62 -34 0 -35 0
0 130 0 130 35 0 c31 0 39 -6 72 -57z m552 31 c28 -35 27 -79 -2 -107 l-22
-23 22 -39 c32 -56 30 -65 -17 -65 -38 0 -40 1 -57 50 -10 27 -23 50 -30 50
-9 0 -13 -16 -13 -50 l0 -50 -35 0 -35 0 0 130 0 130 84 0 c79 0 86 -2 105
-26z m231 -85 c59 -165 58 -149 11 -149 -35 0 -41 3 -47 25 -5 21 -12 25 -40
25 -28 0 -36 -5 -44 -25 -8 -20 -16 -25 -45 -25 -21 0 -35 5 -35 13 0 6 19 65
42 130 l41 118 40 -3 39 -3 38 -106z m250 81 l0 -30 -60 0 c-53 0 -60 -2 -60
-20 0 -18 7 -20 55 -20 54 0 55 0 55 -30 0 -30 -1 -30 -55 -30 l-55 0 0 -50 0
-50 -35 0 -35 0 0 130 0 130 95 0 95 0 0 -30z"/>
        <path d="M1240 379 c0 -16 5 -20 27 -17 17 2 29 10 31 21 3 13 -3 17 -27 17
-25 0 -31 -4 -31 -21z"/>
        <path d="M1506 342 c-8 -24 -3 -37 12 -31 4 2 5 15 2 29 l-6 25 -8 -23z"/>
        <path d="M1302 704 c3 -108 5 -117 27 -135 36 -29 94 -25 120 7 18 23 21 41
21 135 l0 109 -86 0 -86 0 4 -116z"/>
        <path d="M1622 768 c24 -29 70 -84 101 -121 l57 -68 0 120 0 121 -101 0 -101
0 44 -52z"/>
        <path d="M1035 784 c-92 -31 -113 -139 -39 -204 28 -24 44 -30 80 -30 39 0 51
5 79 33 56 56 58 111 7 167 -36 40 -78 51 -127 34z"/>
        <path d="M20 670 l0 -120 55 0 c69 0 107 19 129 64 20 42 20 69 1 110 -22 45
-62 66 -129 66 l-56 0 0 -120z"/>
        <path d="M570 94 c0 -9 7 -14 17 -12 25 5 28 28 4 28 -12 0 -21 -6 -21 -16z"/>
        <path d="M1270 95 c-26 -32 13 -81 48 -59 22 14 27 41 12 59 -16 19 -44 19
-60 0z"/>
        <path d="M1980 100 c0 -5 16 -10 35 -10 19 0 35 5 35 10 0 6 -16 10 -35 10
-19 0 -35 -4 -35 -10z"/>
        <path d="M0 52 c0 -45 3 -52 19 -52 19 0 19 2 4 48 -21 63 -23 64 -23 4z"/>
        <path d="M82 47 c-16 -45 -16 -47 13 -47 29 0 30 6 12 49 l-13 31 -12 -33z"/>
        <path d="M345 70 c-3 -5 -1 -10 4 -10 6 0 11 5 11 10 0 6 -2 10 -4 10 -3 0 -8
-4 -11 -10z"/>
        <path d="M1020 30 c0 -27 3 -30 30 -30 27 0 30 3 30 30 0 27 -3 30 -30 30 -27
0 -30 -3 -30 -30z"/>
        <path d="M1980 45 c0 -10 11 -15 35 -15 24 0 35 5 35 15 0 10 -11 15 -35 15
-24 0 -35 -5 -35 -15z"/>
        <path d="M570 26 c0 -19 5 -26 20 -26 17 0 19 3 10 19 -16 32 -30 34 -30 7z"/>
        <path d="M316 15 c-4 -12 3 -15 34 -15 31 0 38 3 34 15 -8 20 -60 20 -68 0z"/>
    </g>
</svg>
